<svg width="16" height="16" viewBox="0 0 16 16" fill="none" xmlns="http://www.w3.org/2000/svg">
<path fill-rule="evenodd" clip-rule="evenodd" d="M9.36508 14.8986C12.2359 14.4497 14 12.5215 14 9.33334C14 7.83334 12.8333 6.58334 11.6667 5.33334C10.5 4.08334 9.33333 2.83334 9.33333 1.33334C6.33333 1.66668 2.33333 5.66668 2.33333 9.66668C2.33333 12.3716 4.03399 14.623 7.17395 14.9572C6.77644 14.3731 6.49998 13.5865 6.49998 12.5C6.49998 10.75 7.37498 9.58333 8.24998 9C8.2939 9.04392 8.34112 9.0901 8.3909 9.13879C9.00237 9.73682 9.99998 10.7125 9.99998 12.5C9.99998 13.5506 9.74152 14.3207 9.36508 14.8986Z" fill="url(#paint0_linear_3843_31310)"/>
<defs>
<linearGradient id="paint0_linear_3843_31310" x1="8.1667" y1="0.0942122" x2="4.76456" y2="15.174" gradientUnits="userSpaceOnUse">
<stop stop-color="#D8AE15"/>
<stop offset="1" stop-color="#EC4545"/>
</linearGradient>
</defs>
</svg>
