<svg width="20" height="20" viewBox="0 0 20 20" fill="none" xmlns="http://www.w3.org/2000/svg">
<rect x="0.5" y="0.5" width="19" height="19" rx="3.5" stroke="#212121"/>
<path d="M4.3335 5.5335C4.3335 4.87075 4.87075 4.3335 5.5335 4.3335H8.1335C8.79624 4.3335 9.3335 4.87075 9.3335 5.5335V15.1335C9.3335 15.7962 8.79624 16.3335 8.1335 16.3335H5.5335C4.87075 16.3335 4.3335 15.7962 4.3335 15.1335V5.5335Z" fill="#12B670"/>
<path d="M11.3335 5.5335C11.3335 4.87075 11.8708 4.3335 12.5335 4.3335H15.1335C15.7962 4.3335 16.3335 4.87075 16.3335 5.5335V15.1335C16.3335 15.7962 15.7962 16.3335 15.1335 16.3335H12.5335C11.8708 16.3335 11.3335 15.7962 11.3335 15.1335V5.5335Z" fill="white" fill-opacity="0.12"/>
</svg>
