<?xml version="1.0" encoding="UTF-8"?>
<svg width="12px" height="12px" viewBox="0 0 12 12" version="1.1" xmlns="http://www.w3.org/2000/svg" xmlns:xlink="http://www.w3.org/1999/xlink">
    <title>编组备份 5</title>
    <g id="页面-1" stroke="none" stroke-width="1" fill="none" fill-rule="evenodd">
        <g id="合约-增加网络延时检测功能-Hover" transform="translate(-980.000000, -1026.000000)" fill="#28C452" fill-rule="nonzero">
            <g id="编组备份-5" transform="translate(980.000000, 1026.000000)">
                <path d="M0.537313433,0 C0.240563418,0 0,0.240563418 0,0.537313433 C0,0.834063447 0.240563418,1.07462687 0.537313433,1.07462687 C3.73507974,1.07397275 6.75417971,2.5491547 8.71880598,5.0722388 C10.1507434,6.89434389 10.9279626,9.14525155 10.9253731,11.4626866 C10.9253731,11.7594366 11.1659366,12 11.4626866,12 C11.7594366,12 12,11.7594366 12,11.4626866 C12,8.42259307 10.7923276,5.50701389 8.64265684,3.35734316 C6.49298611,1.20767244 3.57740693,0 0.537313433,0 Z" id="路径"></path>
                <path d="M0.537313433,3.58208954 C0.240563418,3.58208954 0,3.82265296 0,4.11940298 C0,4.41615299 0.240563418,4.65671641 0.537313433,4.65671641 C4.29451014,4.66066512 7.33933488,7.70548986 7.34328359,11.4626866 C7.34328359,11.7594366 7.58384701,12 7.88059702,12 C8.17734704,12 8.41791046,11.7594366 8.41791046,11.4626866 C8.41791046,9.37262229 7.58763566,7.36816159 6.10973703,5.89026297 C4.63183841,4.41236434 2.62737771,3.58208954 0.537313433,3.58208954 Z" id="路径"></path>
                <path d="M0.537313433,7.16417911 C0.240563418,7.16417911 0,7.40474252 0,7.70149254 C0,7.99824255 0.240563418,8.23880597 0.537313433,8.23880597 C2.316179,8.24274589 3.75725411,9.683821 3.76119403,11.4626866 C3.76119403,11.7594366 4.00175745,12 4.29850746,12 C4.59525748,12 4.83582089,11.7594366 4.83582089,11.4626866 C4.83582089,9.08868645 2.91131355,7.16417911 0.537313433,7.16417911 Z M0.537313433,10.9253731 C0.240563418,10.9253731 0,11.1659366 0,11.4626866 C0,11.7594366 0.240563418,12 0.537313433,12 C0.834063447,12 1.07462687,11.7594366 1.07462687,11.4626866 C1.07076837,11.1675496 0.832450432,10.9292316 0.537313433,10.9253731 Z" id="形状"></path>
            </g>
        </g>
    </g>
</svg>